:SAMPLES-PER-SECOND 30
:FULLY-SPECIFIED
:DEGREES
244
root  2.59268 36.0355 -0.934021 59.6525 -72.4955 -59.9015
RightUpLeg  -11.9016 -15.6195 -6.98324
RightLeg  21.2498 -0.2308 -0.319003
RightFoot  -1.67837 -2.41389 27.8911
RightToes  -2.32832e-010 0 -3.6325e-017
Spine  24.4677 2.46988 1.89453
Spine1  -29.6326 4.69954 24.9878
HEad  -15.7895 0.524389 -10.0088
LeftShoulder1  1.2931 11.388 28.1664
LeftArm  -61.6695 -37.9323 14.861
LeftForeArm  9.57489 5.9374 0.282806
LeftHand  0.968971 0.593834 -23.3552
RightShoulder  1.08702 -13.612 -21.7311
RightArm  -83.9665 40.0761 -39.3684
RightForeArm  -6.16907 -4.08114 -4.51988
RightHand  0.356365 -2.20743 13.5584
LeftUpLeg  -16.1027 6.33022 43.5535
LeftLeg  26.1322 3.55887 2.23071
LeftFoot  -3.40404 2.20581 -30.8102
LeftToes  2.2737e-010 4.38529e-011 2.18788e-011
245
root  2.65216 36.0396 -0.62798 56.47 -74.2119 -56.4265
RightUpLeg  -12.3644 -13.6677 -9.47403
RightLeg  21.6288 -1.82378 -1.01639
RightFoot  -1.44495 -2.47372 27.929
RightToes  -2.32832e-010 0 -3.6325e-017
Spine  23.3954 2.45428 1.54867
Spine1  -27.6242 4.09722 23.3463
HEad  -18.2454 -0.76381 -10.4819
LeftShoulder1  1.55388 13.1348 27.8239
LeftArm  -69.0681 -39.5706 18.6546
LeftForeArm  4.70617 4.79384 1.31548
LeftHand  0.916775 0.763487 -23.0627
RightShoulder  1.22307 -14.1599 -22.5465
RightArm  -92.9131 40.3793 -40.7279
RightForeArm  -4.753 0.628355 -5.97406
RightHand  0.673929 -0.708761 16.9122
LeftUpLeg  -16.4054 6.83043 40.9053
LeftLeg  26.7697 3.21354 2.09573
LeftFoot  -3.99948 2.06558 -31.099
LeftToes  2.2737e-010 4.38529e-011 2.18788e-011
246
root  2.68773 36.2225 -0.214314 42.7481 -79.3385 -42.1112
RightUpLeg  -13.3486 -11.3845 -16.0799
RightLeg  22.0324 -2.65845 -1.39675
RightFoot  -0.96186 -2.52932 27.2854
RightToes  -2.32832e-010 0 -3.6325e-017
Spine  22.4767 2.38813 0.499158
Spine1  -27.1653 3.30967 15.8607
HEad  -18.3 -2.39922 -9.84599
LeftShoulder1  1.62995 13.6524 27.7355
LeftArm  -73.7932 -41.1153 21.9615
LeftForeArm  4.39084 -0.627104 0.391299
LeftHand  1.4004 -2.23495 -21.0542
RightShoulder  1.20678 -13.6912 -22.9522
RightArm  -95.4729 40.4693 -39.5907
RightForeArm  -3.93047 6.08995 -4.80551
RightHand  0.54284 -0.948026 14.3676
LeftUpLeg  -14.9001 9.63214 33.822
LeftLeg  25.4967 2.26715 1.5181
LeftFoot  -3.98506 2.05271 -30.8667
LeftToes  2.2737e-010 4.38529e-011 2.18788e-011
247
root  2.73788 36.5312 0.17931 0.126007 -83.4019 0.34874
RightUpLeg  -13.1876 -10.891 -24.7942
RightLeg  21.2109 -1.74215 -0.966338
RightFoot  0.148163 -2.68516 26.2748
RightToes  -2.32832e-010 0 -3.6325e-017
Spine  22.9374 1.98398 -0.0233728
Spine1  -27.9298 2.1897 3.68732
HEad  -17.3023 -4.71423 -7.81261
LeftShoulder1  1.57065 12.7494 28.781
LeftArm  -77.1565 -42.3424 25.3864
LeftForeArm  5.77521 -6.94975 -1.13512
LeftHand  1.90085 -6.75692 -17.6877
RightShoulder  1.08089 -12.3803 -23.3412
RightArm  -92.9276 39.8826 -36.3377
RightForeArm  -3.40407 10.8135 -2.39387
RightHand  0.277435 -1.42495 8.59031
LeftUpLeg  -11.3333 12.6195 24.845
LeftLeg  21.6347 1.51099 1.03177
LeftFoot  -2.74575 2.31849 -30.0056
LeftToes  2.2737e-010 4.38529e-011 2.18788e-011
248
root  2.76862 36.8629 0.53964 -53.6981 -81.6912 53.3065
RightUpLeg  -11.6838 -11.5724 -32.3124
RightLeg  18.5715 -0.0707189 -0.229402
RightFoot  2.13447 -3.01412 25.2566
RightToes  -2.32832e-010 0 -3.6325e-017
Spine  23.7253 1.1729 1.38228
Spine1  -27.4832 0.8665 -9.09627
HEad  -17.6065 -7.0644 -5.37766
LeftShoulder1  1.52498 12.1113 29.5811
LeftArm  -82.7122 -43.3616 30.5336
LeftForeArm  3.04667 -11.685 -1.94873
LeftHand  1.97521 -9.87931 -14.4358
RightShoulder  1.02425 -11.1535 -24.6896
RightArm  -91.4045 38.4021 -32.4086
RightForeArm  -0.918566 14.3368 -0.27021
RightHand  0.199708 -0.601005 4.87548
LeftUpLeg  -6.42109 13.9834 17.363
LeftLeg  15.9125 2.02338 1.04767
LeftFoot  -0.704866 2.81093 -29.5275
LeftToes  2.2737e-010 4.38529e-011 2.18788e-011
249
root  2.7261 37.0887 0.746532 -71.7366 -79.625 71.0672
RightUpLeg  -11.0242 -11.241 -35.5326
RightLeg  15.7577 0.536813 -0.0773699
RightFoot  4.04397 -3.35096 24.6525
RightToes  -2.32832e-010 0 -3.6325e-017
Spine  23.4553 0.7216 4.266
Spine1  -25.8093 0.589143 -18.1232
HEad  -19.2233 -8.29461 -3.88653
LeftShoulder1  1.58687 12.625 29.2346
LeftArm  -91.6582 -44.1359 36.3454
LeftForeArm  -5.18255 -14.85 -2.05819
LeftHand  2.11726 -11.1532 -14.2771
RightShoulder  1.063 -10.5635 -26.5186
RightArm  -93.6044 37.1997 -30.143
RightForeArm  1.85702 16.7844 1.0343
RightHand  0.279615 0.970934 4.99216
LeftUpLeg  -2.48414 13.2108 13.9358
LeftLeg  10.7758 4.61462 1.29535
LeftFoot  1.02835 3.32213 -30.064
LeftToes  2.2737e-010 4.38529e-011 2.18788e-011
250
root  2.63828 37.1735 0.641757 -80.885 -81.0175 81.4752
RightUpLeg  -12.6473 -9.50248 -33.6575
RightLeg  14.5202 -0.435875 -0.608685
RightFoot  4.85 -3.56261 24.9169
RightToes  -2.32832e-010 0 -3.6325e-017
Spine  22.1352 1.33418 6.2754
Spine1  -25.1649 1.51773 -20.2498
HEad  -20.2227 -7.90431 -3.73427
LeftShoulder1  1.68376 13.4019 28.7809
LeftArm  -100.794 -44.2855 39.3936
LeftForeArm  -15.2562 -17.3282 -2.39814
LeftHand  2.85404 -11.7609 -18.6608
RightShoulder  1.09292 -10.5376 -27.0642
RightArm  -99.5347 37.6196 -30.906
RightForeArm  3.28239 18.9896 2.28526
RightHand  0.441986 2.69538 6.13788
LeftUpLeg  -1.70485 13.1873 14.8788
LeftLeg  8.39015 6.43576 1.67164
LeftFoot  1.73346 3.6376 -31.1242
LeftToes  2.2737e-010 4.38529e-011 2.18788e-011
251
root  2.58341 37.1661 0.269431 -75.4043 -84.8844 77.9924
RightUpLeg  -14.8769 -8.60269 -28.6974
RightLeg  14.5364 -1.46696 -0.970566
RightFoot  4.76187 -3.66934 25.7679
RightToes  -2.32832e-010 0 -3.6325e-017
Spine  20.6171 2.54255 5.09884
Spine1  -26.1972 2.63545 -13.8949
HEad  -19.7757 -6.32434 -4.56438
LeftShoulder1  1.73435 13.5395 29.0842
LeftArm  -105.824 -43.4555 38.3977
LeftForeArm  -24.5824 -19.443 -3.41986
LeftHand  3.99779 -11.6266 -26.3172
RightShoulder  1.06663 -10.8112 -26.0277
RightArm  -106.602 39.4717 -33.7383
RightForeArm  2.78678 21.544 3.94369
RightHand  0.656216 4.72252 7.201
LeftUpLeg  -3.83465 14.8651 18.8858
LeftLeg  8.9332 5.57652 2.22862
LeftFoot  1.5426 3.67263 -31.8412
LeftToes  2.2737e-010 4.38529e-011 2.18788e-011
252
root  2.61832 37.1434 -0.130349 -18.4809 -87.443 21.9991
RightUpLeg  -14.7715 -10.7612 -22.3822
RightLeg  13.8536 -0.935461 -0.961316
RightFoot  4.70982 -3.75959 26.4549
RightToes  -2.32832e-010 0 -3.6325e-017
Spine  20.1655 3.23093 1.67922
Spine1  -27.6483 3.37278 -0.704049
HEad  -19.1954 -4.46404 -6.28316
LeftShoulder1  1.69836 13.1106 29.5269
LeftArm  -105.825 -41.5782 35.4276
LeftForeArm  -31.9812 -20.4901 -4.13312
LeftHand  4.78271 -10.8107 -32.7293
RightShoulder  1.06053 -11.3468 -24.8293
RightArm  -111.651 41.365 -37.1141
RightForeArm  -0.17858 23.7572 5.12031
RightHand  0.984944 6.53583 9.20614
LeftUpLeg  -7.03936 14.6781 24.4206
LeftLeg  11.2651 4.33748 2.81064
LeftFoot  1.00625 3.50297 -31.6769
LeftToes  2.2737e-010 4.38529e-011 2.18788e-011
253
root  2.72772 37.0731 -0.369046 52.6569 -82.3626 -49.746
RightUpLeg  -11.9811 -12.5993 -16.4643
RightLeg  12.0629 -1.90518 -0.851744
RightFoot  4.80439 -3.86304 27.002
RightToes  -2.32832e-010 0 -3.6325e-017
Spine  21.512 3.16081 -0.515683
Spine1  -28.8758 3.89863 13.423
HEad  -19.8785 -3.29284 -8.75272
LeftShoulder1  1.589 12.4636 29.6019
LeftArm  -103.442 -39.3198 32.2335
LeftForeArm  -35.9702 -20.1211 -3.59994
LeftHand  4.90318 -10.739 -33.7248
RightShoulder  1.12331 -12.1578 -24.2254
RightArm  -114.935 42.0786 -40.4786
RightForeArm  -5.17097 24.5896 5.52591
RightHand  1.33097 7.27029 11.7768
LeftUpLeg  -10.4687 9.39812 30.9925
LeftLeg  15.0537 5.94429 2.84982
LeftFoot  0.137982 3.14675 -30.624
LeftToes  2.2737e-010 4.38529e-011 2.18788e-011
